<?xml version="1.0" standalone="no"?><!DOCTYPE svg PUBLIC "-//W3C//DTD SVG 1.1//EN" "http://www.w3.org/Graphics/SVG/1.1/DTD/svg11.dtd"><svg t="1490538269847" class="icon" style="" viewBox="0 0 1024 1024" version="1.1" xmlns="http://www.w3.org/2000/svg" p-id="895" xmlns:xlink="http://www.w3.org/1999/xlink" width="200" height="200"><defs><style type="text/css"></style></defs><path d="M448.081225 987.873198c-35.927257 0-71.605851-4.589528-106.108666-9.027607-33.31578-4.285606-67.766406-8.717546-101.259218-8.717546-12.269441 0-25.41074 3.929496-39.322587 8.090259-15.872502 4.747117-32.284287 9.654894-49.982368 9.654894-33.04358 0-64.032362-14.023388-87.258343-39.48734-21.935592-24.047696-34.516118-56.267515-34.516118-88.396259 0-16.338107 3.681856-31.137161 7.241938-45.448098 3.199878-12.863982 6.222725-25.01472 6.222725-37.123502 0-23.528879-3.609201-46.693462-7.430226-71.218018-3.865028-24.811082-7.863085-50.465368-7.863085-76.807317 0-95.299483 15.781428-187.667194 45.639456-267.116687 35.06461-93.305059 88.220251-167.456896 157.991314-220.393549 43.473117-33.222659 97.960079-56.774051 145.530514-75.425853C438.434517 41.765219 504.424464 17.667382 575.908542 17.667382c38.138622 0 75.068719 7.668657 110.785176 15.084557 35.299971 7.329942 68.642356 14.252609 102.690824 14.252609 10.541077 0 21.316491-1.406023 32.724309-2.894933 12.107759-1.578961 24.62791-3.213181 37.631062-3.213181 37.932937 0 66.829058 13.115716 85.885066 38.981826 16.09456 21.844517 24.25338 51.965535 24.25338 89.525989 0 14.622022-1.599428 29.204136-3.146667 43.306318-1.52268 13.875009-2.961448 26.980491-2.961448 39.890522 0 14.902408 2.768043 21.815865 7.792477 34.366715 1.215688 3.034103 2.589988 6.469342 4.024663 10.278087 15.404852 39.08825 21.800515 124.420731 21.800515 161.473625 0 102.592586-34.609239 210.115462-97.451496 302.763558-63.877843 94.173846-151.71947 164.696016-247.341295 198.578708l-0.002047 0.001023C600.49245 978.517109 531.684318 987.873198 448.081225 987.873198zM240.71334 939.428859c35.459606 0 70.900793 4.558829 105.175411 8.968256 33.543977 4.315282 68.230987 8.776897 102.19145 8.776897 80.102363 0 145.460929-8.763594 194.262402-26.049283l-0.002047 0.001023c181.876304-64.443731 324.347133-271.948739 324.347133-472.405213 0-41.08779-7.014764-118.258381-19.699668-150.312424l-0.096191-0.24764c-1.333368-3.547803-2.602268-6.716982-3.829212-9.781784-5.582135-13.944594-9.992585-24.958438-9.992585-45.777603 0-14.588253 1.598404-29.153994 3.143597-43.23878 1.523703-13.892405 2.963495-27.01426 2.963495-39.957037 0-30.867008-6.147-54.861492-18.270109-71.317279-13.132088-17.825994-33.140795-26.491351-61.168128-26.491351-11.008728 0-22.011316 1.435699-33.659611 2.955308-11.878538 1.550309-24.162306 3.152806-36.696784 3.152806-37.201274 0-73.66679-7.571443-108.931968-14.894222-34.196847-7.100722-69.559239-14.442944-104.543008-14.442944-66.027809 0-128.859833 23.02132-187.5577 46.600341l-0.118704 0.047072c-45.601594 17.879206-97.680716 40.330544-138.198525 71.293743C128.299061 258.671341 58.504462 427.448302 58.504462 629.393687c0 23.963785 3.641947 47.336098 7.496741 72.079642 3.832282 24.600281 7.795547 50.037626 7.795547 75.94467 0 15.870456-3.624551 30.442336-7.130398 44.535309-3.257184 13.093203-6.333242 25.459858-6.333242 38.037315 0 46.932915 36.5965 97.184413 91.075275 97.184413 13.205766 0 26.797319-4.064572 41.187051-8.367575C208.011544 944.196443 223.951585 939.428859 240.71334 939.428859z" p-id="896" fill="#ffffff"></path></svg>